<svg version="1.0" xmlns="http://www.w3.org/2000/svg" preserveAspectRatio="xMidYMid meet" viewBox="754.3 563.7 597.65 804.2"> <g transform="translate(0.000000,2048.000000) scale(0.100000,-0.100000)" fill="#ff0000" stroke="none"> <path d="M11934 14829 c-43 -30 -120 -63 -204 -88 -132 -40 -212 -84 -301 -169 -82 -78 -93 -102 -46 -102 43 0 244 63 327 102 71 34 101 56 183 138 53 53 97 104 97 112 0 25 -25 28 -56 7z"></path> <path d="M11371 14309 c-108 -13 -409 -76 -489 -103 -84 -29 -230 -96 -337 -155 -103 -57 -392 -247 -520 -344 -251 -188 -544 -553 -700 -872 -115 -235 -171 -454 -210 -815 -20 -187 -28 -216 -66 -236 -28 -14 -33 -14 -62 3 -45 26 -93 112 -113 201 -16 74 -16 188 2 315 7 47 6 49 -17 45 -19 -2 -32 -20 -61 -78 -87 -176 -106 -349 -64 -590 44 -253 114 -454 207 -587 67 -97 111 -197 140 -313 21 -84 24 -119 24 -295 0 -158 -4 -218 -19 -285 -43 -199 -112 -365 -200 -479 -165 -213 -359 -194 -481 49 -44 87 -61 173 -75 370 -15 210 -31 292 -71 371 -79 158 -153 236 -304 322 -114 64 -162 84 -175 71 -6 -6 9 -46 35 -99 81 -167 125 -375 105 -503 -14 -87 -40 -150 -106 -258 -113 -188 -207 -468 -244 -728 -39 -284 -36 -497 11 -743 27 -142 137 -469 205 -608 281 -581 972 -1001 1854 -1129 396 -58 883 -43 1285 39 295 60 548 146 811 275 403 198 726 470 916 770 92 144 206 389 277 595 124 357 175 587 192 855 12 182 9 260 -22 525 -33 285 -15 456 67 622 45 91 103 146 177 168 50 14 58 14 102 0 78 -27 94 -5 51 70 -28 48 -124 118 -200 147 -112 43 -275 15 -383 -66 -139 -105 -204 -242 -268 -566 -26 -128 -70 -234 -119 -286 -39 -40 -47 -44 -92 -44 -92 0 -218 100 -270 214 -64 139 -75 290 -40 540 66 477 8 760 -202 987 -75 81 -166 131 -281 155 -80 16 -182 15 -188 -2 -2 -6 19 -44 47 -84 53 -79 105 -208 116 -287 22 -172 -151 -298 -328 -238 -62 22 -172 115 -217 185 -21 32 -53 102 -70 156 -32 94 -33 103 -29 224 5 140 16 179 82 299 58 105 162 206 331 321 107 72 169 124 265 220 186 187 239 291 248 485 4 100 2 117 -22 188 -33 99 -77 166 -155 240 -86 82 -94 77 -95 -53 -1 -95 -4 -111 -30 -165 -42 -86 -128 -169 -196 -189 -68 -20 -116 -20 -194 0 -86 22 -155 64 -224 138 -87 93 -107 140 -107 251 1 283 225 523 657 703 52 22 109 43 126 47 22 5 32 12 32 26 0 18 -8 19 -122 18 -68 -1 -156 -5 -197 -10z"></path> <path d="M8862 13518 c-7 -7 -12 -21 -12 -33 0 -39 -30 -140 -61 -202 -39 -81 -139 -173 -250 -232 -46 -24 -112 -63 -145 -87 -241 -169 -349 -484 -253 -738 23 -62 188 -299 211 -304 12 -2 14 29 14 200 -1 199 -1 204 26 260 38 81 89 125 242 208 74 40 154 91 177 113 63 61 97 143 109 263 13 136 12 338 -2 448 -14 109 -27 133 -56 104z"></path> <path d="M12785 12373 c-10 -41 -7 -370 4 -429 13 -66 48 -159 100 -261 53 -107 86 -208 111 -346 29 -159 29 -157 46 -157 21 0 38 45 67 180 34 156 40 222 27 304 -16 102 -44 172 -104 261 -29 44 -63 99 -74 121 -31 61 -97 230 -116 297 -13 43 -21 57 -35 57 -12 0 -21 -10 -26 -27z"></path> </g> </svg>